<?xml version="1.0" encoding="UTF-8"?>
<svg id="katman_1" data-name="katman 1" xmlns="http://www.w3.org/2000/svg" version="1.1" xmlns:xlink="http://www.w3.org/1999/xlink" viewBox="0 0 1235.81 637.12">
  <defs>
    <style>
      .cls-1 {
        fill: #b2b3b3;
        opacity: .77;
      }

      .cls-1, .cls-2, .cls-3, .cls-4, .cls-5, .cls-6, .cls-7 {
        stroke-width: 0px;
      }

      .cls-1, .cls-2, .cls-4, .cls-6 {
        fill-rule: evenodd;
      }

      .cls-2 {
        fill: #020202;
      }

      .cls-3 {
        fill: none;
      }

      .cls-4, .cls-5 {
        fill: #ffed00;
      }

      .cls-8 {
        clip-path: url(#clippath);
      }

      .cls-6, .cls-7 {
        fill: #fefefe;
      }
    </style>
    <clipPath id="clippath">
      <rect class="cls-3" x="-1" y="1" width="1235.81" height="637.12"/>
    </clipPath>
  </defs>
  <g class="cls-8">
    <path class="cls-2" d="M39.24,11.52h1160.48c16.35,0,29.73,13.38,29.73,29.73v556.63c0,16.35-13.38,29.73-29.73,29.73H39.24c-16.35,0-29.73-13.38-29.73-29.73V41.24c0-16.35,13.38-29.73,29.73-29.73"/>
    <path class="cls-4" d="M39.24,11.52h1155.32c16.35,0,29.73,13.38,29.73,29.73v556.63c0,16.35-13.38,29.73-29.73,29.73H39.24c-16.35,0-29.73-13.38-29.73-29.73V41.24c0-16.35,13.38-29.73,29.73-29.73M39.24,2h1155.32c21.58,0,39.24,17.66,39.24,39.24v556.63c0,21.58-17.66,39.24-39.24,39.24H39.24c-21.58,0-39.24-17.66-39.24-39.24V41.24C0,19.66,17.66,2,39.24,2Z"/>
    <path class="cls-4" d="M42.45,24.84h1148.91c10.84,0,19.72,8.98,19.72,19.95v549.53c0,10.97-8.87,19.95-19.72,19.95H42.45c-10.84,0-19.72-8.98-19.72-19.95V44.8c0-10.98,8.87-19.95,19.72-19.95M42.45,20.14h1148.91c13.4,0,24.36,11.09,24.36,24.65v549.53c0,13.56-10.96,24.65-24.36,24.65H42.45c-13.4,0-24.36-11.09-24.36-24.65V44.8c0-13.56,10.96-24.65,24.36-24.65Z"/>
    <path class="cls-7" d="M1148.7,70.22c2.97,0,5.02.88,6.13,2.65,1.11,1.76,1.67,3.39,1.67,4.88v183.08h-13.93c-2.23,0-3.67-.46-4.32-1.39-.65-.93-1.07-1.86-1.25-2.79V70.22h11.7ZM1057.8,198.69c.74-.37,2.6-1.25,5.67-2.65,3.02-1.39,5.81-2.65,8.36-3.76v45.7c0,3.34-.6,6.46-1.76,9.33-1.21,2.88-2.83,5.39-4.97,7.52-2.09,2.14-4.55,3.85-7.38,5.16-2.83,1.3-5.85,2.04-9.01,2.23h-2.23v2.79c7.01,1.86,10.54,6.41,10.54,13.65-.19,3.34-1.11,6.13-2.74,8.36-1.49,2.04-3.62,3.81-6.41,5.29-2.79,1.49-6.87,1.95-12.26,1.39l.56-2.23c.19-1.49.84-2.6,1.95-3.34.56-.37,1.02-.56,1.39-.56,1.49-.19,3.02-.88,4.6-2.09,1.58-1.21,2.28-3.11,2.09-5.71-.19-2.23-1.02-4.09-2.51-5.57-1.49-1.49-3.25-2.23-5.29-2.23h-1.39v-9.75h-.56c-6.69,0-12.4-2.37-17.14-7.11-4.74-4.74-7.11-10.45-7.11-17.14V93.35c0-6.69,2.37-12.4,7.06-17.14,4.74-4.74,10.4-7.11,17.09-7.11h12.17c6.32.37,11.75,2.88,16.39,7.52,4.6,4.64,6.92,10.22,6.92,16.72v28.7c0,3.16-.6,5.53-1.76,7.11-1.21,1.58-2.46,2.74-3.72,3.48-.74.37-2.6,1.25-5.67,2.65-3.02,1.39-5.81,2.65-8.36,3.76v-42.63c.19-2.79-.74-5.2-2.79-7.25s-4.55-3.07-7.52-3.07c-2.79,0-5.2,1.02-7.24,3.07-2.04,2.04-3.07,4.46-3.07,7.25v138.49c0,2.79,1.02,5.2,3.07,7.25,2.04,2.04,4.46,3.07,7.24,3.07,2.97,0,5.48-1.02,7.52-3.07,2.04-2.04,2.97-4.46,2.79-7.25v-25.64c0-3.16.6-5.53,1.76-7.11,1.21-1.58,2.46-2.74,3.72-3.48ZM949.81,260.83h-20.62l-26.19-85.55v85.55h-19.51V76.91c0-3.16.79-5.2,2.42-6.13,1.58-.93,2.97-1.39,4.09-1.39h13v69.67l24.24-69.11h20.06l-30.37,86.11,32.88,104.78ZM819.15,260.83h-21.46l-17-131.53-17.28,131.53h-21.46l28.98-190.6h10.31c4.27,0,7.01,1.07,8.22,3.2,1.21,2.14,2,4.51,2.37,7.11l27.31,180.29ZM673.91,198.69c.74-.37,2.6-1.25,5.67-2.65,3.02-1.39,5.81-2.65,8.36-3.76v45.7c0,3.34-.6,6.46-1.76,9.33-1.21,2.88-2.83,5.39-4.97,7.52-2.09,2.14-4.55,3.85-7.38,5.16-2.83,1.3-5.85,2.04-9.01,2.23h-2.23v2.79c7.01,1.86,10.54,6.41,10.54,13.65-.19,3.34-1.11,6.13-2.74,8.36-1.49,2.04-3.62,3.81-6.41,5.29-2.79,1.49-6.87,1.95-12.26,1.39l.56-2.23c.19-1.49.84-2.6,1.95-3.34.56-.37,1.02-.56,1.39-.56,1.49-.19,3.02-.88,4.6-2.09,1.58-1.21,2.28-3.11,2.09-5.71-.19-2.23-1.02-4.09-2.51-5.57-1.49-1.49-3.25-2.23-5.29-2.23h-1.39v-9.75h-.56c-6.69,0-12.4-2.37-17.14-7.11-4.74-4.74-7.11-10.45-7.11-17.14V93.35c0-6.69,2.37-12.4,7.06-17.14,4.74-4.74,10.4-7.11,17.09-7.11h12.17c6.32.37,11.75,2.88,16.39,7.52,4.6,4.64,6.92,10.22,6.92,16.72v28.7c0,3.16-.6,5.53-1.76,7.11-1.21,1.58-2.46,2.74-3.72,3.48-.74.37-2.6,1.25-5.67,2.65-3.02,1.39-5.81,2.65-8.36,3.76v-42.63c.19-2.79-.74-5.2-2.79-7.25-2.04-2.04-4.55-3.07-7.52-3.07-2.79,0-5.2,1.02-7.25,3.07-2.04,2.04-3.07,4.46-3.07,7.25v138.49c0,2.79,1.02,5.2,3.07,7.25,2.04,2.04,4.46,3.07,7.25,3.07,2.97,0,5.48-1.02,7.52-3.07,2.04-2.04,2.97-4.46,2.79-7.25v-25.64c0-3.16.6-5.53,1.76-7.11,1.21-1.58,2.46-2.74,3.72-3.48ZM554.22,70.22c2.97,0,5.02.88,6.13,2.65,1.11,1.76,1.67,3.39,1.67,4.88v183.08h-13.93c-2.23,0-3.67-.46-4.32-1.39-.65-.93-1.07-1.86-1.25-2.79V70.22h11.7ZM464.66,165.53c2.04.74,3.85,1.86,5.53,3.34,1.44,1.3,2.74,2.93,3.85,4.88,1.07,1.95,1.63,4.41,1.63,7.38v55.73c0,6.69-2.37,12.35-7.06,17-4.74,4.64-10.4,6.97-17.09,6.97h-35.48V70.22h35.48c3.34,0,6.5.6,9.47,1.81,2.93,1.21,5.48,2.88,7.62,5.02,2.09,2.14,3.81,4.64,5.11,7.52,1.3,2.88,1.95,5.99,1.95,9.34v56.01c0,3.16-.56,5.67-1.63,7.52-1.11,1.86-2.41,3.44-3.85,4.74-1.67,1.49-3.48,2.6-5.53,3.34ZM456.16,185.59c0-4.27-1.02-7.2-3.07-8.78-2.04-1.58-4.46-2.37-7.25-2.37h-10.31v66.88h10.31c2.79,0,5.2-.7,7.25-2.09,2.04-1.39,3.07-3.95,3.07-7.66v-45.98ZM456.16,99.48c0-3.72-1.02-6.27-3.07-7.66-2.04-1.39-4.46-2.09-7.25-2.09h-10.31v66.88h10.31c2.79,0,5.2-.79,7.25-2.37,2.04-1.58,3.07-4.51,3.07-8.78v-45.98Z"/>
    <path class="cls-5" d="M1169.95,311.1v257.03h-12.09c-3.57,0-6.45-.63-8.71-1.88-2.25-1.25-4.07-2.76-5.32-4.51-1.25-1.75-2.19-3.57-2.82-5.45-.63-1.88-1.06-3.44-1.31-4.7l-28.37-127.01v143.54h-26.3v-257.03h12.02c7.52,0,12.34,1.44,14.47,4.32,2.13,2.88,3.57,6.2,4.32,9.96l27.81,133.77v-148.05h26.3ZM1026.92,568.13h-28.93l-22.92-177.36-23.3,177.36h-28.93l39.08-257.03h13.9c5.76,0,9.46,1.44,11.09,4.32,1.63,2.88,2.69,6.08,3.19,9.58l36.83,243.12ZM883.15,568.13h-27.81l-35.32-115.36v115.36h-26.3v-248.01c0-4.26,1.06-7.01,3.26-8.27,2.13-1.25,4.01-1.88,5.51-1.88h17.54v93.94l32.69-93.19h27.06l-40.96,116.11,44.34,141.29ZM731.1,568.13h-26.3v-93.94c0-6.51-1.38-10.9-4.13-13.15-2.76-2.25-6.01-3.38-9.77-3.38h-13.9v110.48h-26.3v-257.03h47.85c4.51,0,8.77.81,12.78,2.44,3.95,1.63,7.39,3.88,10.27,6.76,2.82,2.88,5.14,6.26,6.89,10.15,1.75,3.88,2.63,8.08,2.63,12.59v79.66c0,5.01-.56,9.02-1.69,12.02-1.06,3.01-2.25,5.26-3.51,6.76-1.44,1.75-3.07,3.01-4.82,3.76,1.75,1,3.38,2.63,4.82,4.88,1.25,2,2.44,4.57,3.51,7.7,1.13,3.13,1.69,7.08,1.69,11.84v98.45ZM690.9,433.23c3.76,0,7.01-1.06,9.77-3.19,2.76-2.13,4.13-6.07,4.13-11.84v-67.64c0-5.01-1.38-8.45-4.13-10.33-2.76-1.88-6.01-2.82-9.77-2.82h-13.9v95.82h13.9ZM539.6,541.83h55.24c1.75,0,2.38.94,1.88,2.82-.5,1.88-1.44,4.01-2.82,6.39-1.38,2.38-2.88,4.57-4.51,6.58-1.63,2-2.69,3.13-3.19,3.38-.75,1.75-2.19,3.38-4.32,4.89-2.13,1.5-5.32,2.25-9.58,2.25h-59v-249.51c0-2.25.81-4.07,2.44-5.45,1.63-1.38,3.44-2.07,5.45-2.07h68.77c1.75,0,2.38.94,1.88,2.82-.5,1.88-1.44,3.95-2.82,6.2-1.38,2.25-2.88,4.38-4.51,6.39-1.63,2-2.69,3.13-3.19,3.38-.75,1.75-2.19,3.44-4.32,5.07-2.13,1.63-5.32,2.44-9.58,2.44h-21.42c-1.75,0-3.26.56-4.51,1.69-1.25,1.13-1.88,2.57-1.88,4.32v77.03h39.83c1.75,0,2.44.94,2.07,2.76-.38,1.88-1.25,3.95-2.63,6.33-1.38,2.32-2.94,4.51-4.7,6.45-1.75,2-2.88,3.13-3.38,3.38-.75,1.94-2.19,3.69-4.32,5.2-2.13,1.44-5.32,2.19-9.58,2.19l-10.9-.38c-1.75,0-3.26.63-4.51,1.88-1.25,1.25-1.88,2.76-1.88,4.51v89.06ZM475.99,367.47c-1.25.5-3.88,1.69-8.02,3.57-4.07,1.88-7.7,3.57-10.9,5.07v-29.31c0-4.01-1.38-7.39-4.13-10.15-2.76-2.76-6.14-4.13-10.15-4.13-3.76,0-7.01,1.38-9.77,4.13-2.76,2.76-4.13,6.14-4.13,10.15v24.42c.25,3.01.88,6.26,1.88,9.77.75,3.01,1.88,6.64,3.38,10.9,1.44,4.26,3.57,8.89,6.33,13.9l30.94,58.62c2,4.76,3.88,9.39,5.64,13.9,1.5,4.01,2.82,8.39,4.07,13.15,1.25,4.76,1.88,9.27,1.88,13.53v32.32c0,9.02-3.19,16.72-9.52,23.11-6.39,6.39-14.03,9.58-23.05,9.58h-16.41c-8.77-.5-16.16-3.82-22.3-9.96-6.07-6.14-9.14-13.59-9.14-22.36v-26.3c0-4.26.75-7.45,2.25-9.58,1.5-2.13,3.13-3.7,4.88-4.7,1.25-.5,3.88-1.69,7.89-3.57,4.01-1.88,7.77-3.57,11.27-5.07v45.03c0,3.76,1.38,6.95,4.13,9.64,2.76,2.63,6.01,3.95,9.77,3.95,4.01,0,7.33-1.32,9.96-3.95,2.63-2.63,3.95-5.95,3.95-9.96v-29c-.25-3.01-.88-6.26-1.88-9.77-.75-3.01-1.82-6.64-3.19-10.96-1.38-4.26-3.44-8.89-6.2-13.9l-31.56-59.06c-2.25-4.82-4.13-9.46-5.64-13.97-1.5-4.01-2.82-8.39-3.95-13.15-1.13-4.76-1.69-9.27-1.69-13.59v-26.3c0-4.51.88-8.77,2.63-12.78,1.75-4.07,4.07-7.64,6.89-10.77,2.88-3.13,6.33-5.64,10.33-7.52,3.95-1.88,8.2-2.82,12.71-2.82h16.41c4.26,0,8.33.94,12.15,2.82,3.88,1.88,7.2,4.38,9.96,7.52,2.69,3.13,4.95,6.76,6.7,10.9,1.75,4.13,2.63,8.33,2.63,12.59v9.77c0,4.26-.75,7.45-2.19,9.58-1.5,2.13-3.13,3.7-4.82,4.7Z"/>
    <path class="cls-6" d="M192.79,51.83c7.02,1.52,30.18,24.31,34.09,28.52,56.82,61.22,52.11,116.46,58.99,129.55l88.98-.26c1.45-26.52,1.03-83.15-5.09-105.84-17.94-66.5-99.43-64.38-156.94-64.38-35.13,0-68.62,1.09-95.24,14.97-56.44,29.42-48.5,113.43-47.8,174.18.42,36.05,7.24,64.92,25.35,85.39,7.06,7.97,21,16.89,32.64,22.49,14.46,6.95,48.22,18.59,64.85,19.89l.18-304.49ZM167.02,411.67l-96.07-.08c0,149.59-7.82,192.26,186.05,187.81,126.75-2.91,126.9-70.5,126.9-194.23,0-34.5-2.57-69.59-19.46-92.13-8.03-10.71-18.45-18.51-30.27-24.99-8.3-4.55-29.72-13.94-39.86-15.47l4.5,51.09c1.31,13.84,3.68,39.45,2.43,52.79-8.18,5.2-23.84,7.75-34.9,9.16l-35.98,4.8c-1.45.76-.69.35-1.65,1.26,5.54,1.14,14.45,4.89,20.34,7.08,6.97,2.59,12.47,3.63,14.28,11.95,3.89,17.82-4.3,74.53,3.93,102.91,2.14,7.38,4.35,13.58,7.66,19.65,6.92,12.69,7.45,10.45,2.45,17.92-14.98,3.92-40,1.96-56.91,2-9.8.03-16.95.39-23.07-6.06-6.12-6.45-4.78-12.46-4.78-23.06,0-18.24.91-97.31-.13-112.46h-25.46v.08Z"/>
    <path class="cls-1" d="M209.64,357.1l-16.85-305.27-22.75,300.29c13.11,3.62,26.87,5.86,39.61,4.98M220.47,553.17l-8.32-150.8c-4.77,6.16-8.53,10.41-8.53,10.41l-11.12-1.19-26.96.05-10.29,135.79,65.23,5.75Z"/>
    <path class="cls-2" d="M192.65,297.68v117.09c.78,20.77-.03,92.08-.03,109.29,0,10.61-1.34,16.61,4.78,23.06,6.11,6.44,13.27,6.08,23.07,6.06,16.91-.04,41.93,1.92,56.91-2,4.99-7.48,4.46-5.23-2.45-17.92-3.31-6.07-5.52-12.27-7.66-19.65-8.23-28.37-.04-85.09-3.93-102.91-1.82-8.32-7.31-9.36-14.28-11.95-5.89-2.19-14.8-5.94-20.34-7.08.95-.9.19-.5,1.65-1.26l35.98-4.8c11.07-1.41,26.73-3.96,34.9-9.16,1.26-13.34-1.11-38.95-2.43-52.79l-2.8-31.72c-3.57-40.07-15.87-107.8-15.99-108.43,0,0,0,0,0,0-4.91-24.8-15.57-62.67-53.15-103.16-3.9-4.21-27.07-26.99-34.09-28.52l-.15,245.84ZM282.22,350.6c-6.58-45.49-15.33-94.32-24.88-139.28-7.57-35.63-16-62.17-29.69-94.37l-12.77-28.08,8.47,11.16c20.77,29.58,34.69,67.09,40.5,103.86,1.85,11.71,3.9,23.22,5.68,34.94,1.81,11.91,2.92,24.74,5.02,36.55,1.89,10.63,8.02,66.1,7.66,75.22Z"/>
    <path class="cls-6" d="M255.83,211.32c9.56,44.96,18.3,93.78,24.88,139.28.36-9.12-5.77-64.59-7.66-75.22-2.1-11.81-3.21-24.65-5.02-36.55-1.78-11.72-3.83-23.23-5.68-34.94-5.81-36.77-19.73-74.28-40.5-103.86l-8.47-11.16,12.77,28.08c13.69,32.21,22.11,58.74,29.69,94.37"/>
  </g>
</svg>